<?xml version="1.0" encoding="UTF-8" standalone="no"?>
<!-- Created with Inkscape (http://www.inkscape.org/) -->

<svg
   version="1.1"
   id="svg1"
   width="1833.071"
   height="1600"
   viewBox="0 0 1833.071 1600"
   sodipodi:docname="mirror_descent.svg"
   inkscape:version="1.3 (0e150ed, 2023-07-21)"
   xmlns:inkscape="http://www.inkscape.org/namespaces/inkscape"
   xmlns:sodipodi="http://sodipodi.sourceforge.net/DTD/sodipodi-0.dtd"
   xmlns="http://www.w3.org/2000/svg"
   xmlns:svg="http://www.w3.org/2000/svg">
  <defs
     id="defs1" />
  <sodipodi:namedview
     id="namedview1"
     pagecolor="#ffffff"
     bordercolor="#666666"
     borderopacity="1.0"
     inkscape:showpageshadow="2"
     inkscape:pageopacity="0.0"
     inkscape:pagecheckerboard="0"
     inkscape:deskcolor="#d1d1d1"
     inkscape:zoom="0.25005835"
     inkscape:cx="1469.657"
     inkscape:cy="925.78391"
     inkscape:window-width="1712"
     inkscape:window-height="810"
     inkscape:window-x="0"
     inkscape:window-y="38"
     inkscape:window-maximized="0"
     inkscape:current-layer="g1">
    <inkscape:page
       x="0"
       y="0"
       inkscape:label="1"
       id="page1"
       width="1833.071"
       height="1600"
       margin="0"
       bleed="0"
       inkscape:export-filename="mirror_descent.pdf"
       inkscape:export-xdpi="300"
       inkscape:export-ydpi="300" />
  </sodipodi:namedview>
  <g
     id="g1"
     inkscape:groupmode="layer"
     inkscape:label="1">
    <path
       id="path1"
       d="m 268.77066,487.56799 c 0,0 -200.723995,47.31199 -144.12,140.13466 56.604,92.828 -0.172,294.07333 -57.718662,336.71335 -57.5413316,42.636 62.270662,201.704 174.291992,154.0106 112.02133,-47.6973 263.21333,-96.692 298.016,15.032 34.80133,111.7187 189.82266,1.896 191.27066,-106.328 1.448,-108.22396 -245.81333,-146.34929 -166.48,-241.53729 79.32933,-95.18666 241.824,-80.30666 192.10933,-187.16133 C 706.42132,491.57865 639.80665,232.52666 573.94265,302.72399 c -65.864,70.19333 -247.56266,-16.74533 -252.83332,69.86 -5.26534,86.604 -52.33867,114.984 -52.33867,114.984 z"
       style="fill:#be0000;fill-opacity:0.207008;fill-rule:nonzero;stroke:#000000;stroke-width:6.99999;stroke-linecap:butt;stroke-linejoin:miter;stroke-miterlimit:4;stroke-dasharray:none;stroke-opacity:1" />
    <path
       id="path2"
       d="m 1323.412,345.54132 c 0,0 -241.3387,-34.88 -198.792,110.10933 42.552,144.98933 -47.156,316.61466 -89.208,321.724 -42.04802,5.10933 -116.15202,346.75065 68.8853,392.14135 185.036,45.396 410.276,184.348 410.5987,-58.7094 0.3173,-243.05196 206.12,-213.64529 153.9733,-416.96262 -52.1453,-203.31733 98.844,-200.17733 35.6093,-384.61466 -63.2333,-184.43732 -381.0666,36.312 -381.0666,36.312 z"
       style="fill:#18aa00;fill-opacity:0.290096;fill-rule:nonzero;stroke:#000000;stroke-width:7;stroke-linecap:butt;stroke-linejoin:miter;stroke-miterlimit:4;stroke-dasharray:none;stroke-opacity:1" />
    <path
       id="path3"
       d="m 619.34398,235.16133 c 0,0 369.46266,-492.17199 645.35332,29.33866"
       style="fill:none;stroke:#000000;stroke-width:6;stroke-linecap:butt;stroke-linejoin:miter;stroke-miterlimit:4;stroke-dasharray:none;stroke-opacity:1" />
    <path
       id="path4"
       d="m 1264.6973,264.49999 -32.4383,-9.98965 60.4954,63.02565 -18.0674,-85.47428 z"
       style="fill:#000000;fill-opacity:1;fill-rule:evenodd;stroke:#000000;stroke-width:6.4;stroke-linecap:butt;stroke-linejoin:miter;stroke-miterlimit:4;stroke-dasharray:none;stroke-opacity:1" />
    <path
       id="path5"
       d="m 1057.3173,1353.6613 c 0,0 -362.11465,497.5987 -645.71864,-19.7547"
       style="fill:none;stroke:#000000;stroke-width:6;stroke-linecap:butt;stroke-linejoin:miter;stroke-miterlimit:4;stroke-dasharray:none;stroke-opacity:1" />
    <path
       id="path6"
       d="m 440.44213,1386.5204 32.58388,9.5059 -61.42747,-62.1199 19.33341,85.1932 z"
       style="fill:#000000;fill-opacity:1;fill-rule:evenodd;stroke:#000000;stroke-width:6.4;stroke-linecap:butt;stroke-linejoin:miter;stroke-miterlimit:4;stroke-dasharray:none;stroke-opacity:1" />
    <g
       id="g96"
       transform="translate(0,-124)">
      <path
         id="path7"
         d="m 893.2931,260.42264 c 0.23466,-0.344 0.57866,-1.156 0.57866,-1.60934 0,-0.81733 -0.12533,-0.92666 -2.772,-0.92666 h -79.50399 c -2.64667,0 -2.756,0.10933 -2.756,0.92666 0,0.45334 0.344,1.26534 0.584,1.60934 l 38.81733,77.76533 c 0.812,1.50533 1.156,2.19333 3.11466,2.19333 1.95867,0 2.30134,-0.688 3.09867,-2.19333 z m -70.172,5.76533 h 63.24533 l -31.568,63.35466 z"
         style="fill:#000000;fill-opacity:1;fill-rule:nonzero;stroke:none;stroke-width:1.33333" />
      <path
         id="path8"
         d="m 955.21443,259.61064 c 0.12533,-0.45334 0.344,-1.14134 0.344,-1.724 0,-1.16134 -0.79733,-1.26667 -1.37467,-1.26667 -1.14533,0 -1.27066,0.23467 -1.724,2.30267 l -19.136,76.14533 c -8.75466,-1.03067 -13.11866,-5.29067 -13.11866,-12.9 0,-2.30267 0,-5.292 6.21333,-21.42267 0.45333,-1.37467 1.27067,-3.35333 1.27067,-5.65067 0,-5.188 -3.69867,-9.44266 -9.44267,-9.44266 -10.948,0 -15.224,16.708 -15.224,17.74 0,1.16133 1.16133,1.16133 1.396,1.16133 1.14,0 1.27067,-0.23467 1.828,-2.084 3.12,-10.948 7.724,-14.28133 11.63467,-14.28133 0.928,0 2.88,0 2.88,3.67733 0,3.01067 -1.14,5.87467 -2.64534,9.912 -5.52533,14.52 -5.52533,17.50933 -5.52533,19.46267 0,10.948 8.98933,15.67733 20.04133,16.36533 -0.92266,4.15067 -0.92266,4.38533 -2.53733,10.49467 -0.34267,1.27066 -2.64,10.604 -2.64,10.948 0,0.10933 0,1.14 1.37467,1.14 0.23466,0 0.81333,0 1.052,-0.45334 0.344,-0.23333 1.032,-3.11866 1.376,-4.728 l 4.38533,-17.16266 c 4.26,0 14.39067,0 25.22933,-12.32267 4.728,-5.312 7.13467,-10.38533 8.40533,-13.828 1.032,-2.88 3.568,-12.90667 3.568,-17.97867 0,-6.45333 -3.11466,-8.06266 -5.07333,-8.06266 -2.88,0 -5.76,2.98933 -5.76,5.52533 0,1.50533 0.708,2.19333 1.74,3.11467 1.26533,1.27066 4.15067,4.26133 4.15067,9.78666 0,7.38 -6,16.81734 -10.02667,20.96934 -10.14533,10.26 -17.52,10.26 -21.67066,10.26 l 19.00933,-75.69733"
         style="fill:#000000;fill-opacity:1;fill-rule:nonzero;stroke:none;stroke-width:1.33333" />
      <path
         id="path9"
         d="m 1016.6838,364.2293 c 0,-0.34267 0,-0.58267 -1.9534,-2.536 -14.3906,-14.516 -18.08797,-36.30133 -18.08797,-53.916 0,-20.06267 4.38537,-40.104 18.55737,-54.51066 1.484,-1.38 1.484,-1.61467 1.484,-1.95867 0,-0.79733 -0.4534,-1.14 -1.1414,-1.14 -1.156,0 -11.5253,7.828 -18.32264,22.468 -5.86933,12.672 -7.26533,25.464 -7.26533,35.14133 0,8.97333 1.27066,22.92667 7.61466,35.93733 6.90131,14.172 16.81731,21.656 17.97331,21.656 0.688,0 1.1414,-0.344 1.1414,-1.14133"
         style="fill:#000000;fill-opacity:1;fill-rule:nonzero;stroke:none;stroke-width:1.33333" />
      <path
         id="path10"
         d="m 1045.9184,307.7773 c 0,-3.35467 -2.776,-6.104 -6.1093,-6.104 -3.3547,0 -6.104,2.74933 -6.104,6.104 0,3.33333 2.7493,6.10933 6.104,6.10933 3.3333,0 6.1093,-2.776 6.1093,-6.10933"
         style="fill:#000000;fill-opacity:1;fill-rule:nonzero;stroke:none;stroke-width:1.33333" />
      <path
         id="path11"
         d="m 1088.3971,307.7773 c 0,-8.99067 -1.2707,-22.94267 -7.5933,-35.95333 -6.9227,-14.172 -16.8187,-21.656 -17.98,-21.656 -0.6867,0 -1.1614,0.452 -1.1614,1.14 0,0.344 0,0.57867 2.1934,2.66667 11.292,11.396 17.8693,29.71866 17.8693,53.80266 0,19.69733 -4.276,39.97867 -18.5573,54.49467 -1.5054,1.37466 -1.5054,1.61466 -1.5054,1.95733 0,0.688 0.4747,1.14133 1.1614,1.14133 1.1613,0 11.5266,-7.828 18.324,-22.45333 5.8693,-12.688 7.2493,-25.464 7.2493,-35.14"
         style="fill:#000000;fill-opacity:1;fill-rule:nonzero;stroke:none;stroke-width:1.33333" />
    </g>
    <g
       id="g95"
       transform="translate(-411.68266,-254.30959)">
      <path
         id="path12"
         d="m 798.758,1196.953 c 0.164,-0.238 0.402,-0.805 0.402,-1.117 0,-0.566 -0.09,-0.641 -1.922,-0.641 h -55.082 c -1.836,0 -1.91,0.075 -1.91,0.641 0,0.312 0.238,0.879 0.402,1.117 l 26.895,53.875 c 0.566,1.043 0.805,1.52 2.16,1.52 1.356,0 1.594,-0.477 2.149,-1.52 z m -48.617,3.992 h 43.82 l -21.871,43.895 z"
         style="fill:#000000;fill-opacity:1;fill-rule:nonzero;stroke:none"
         transform="scale(1.3333333)" />
      <path
         id="path13"
         d="m 841.66,1196.387 c 0.09,-0.313 0.238,-0.793 0.238,-1.192 0,-0.804 -0.55,-0.879 -0.953,-0.879 -0.793,0 -0.879,0.161 -1.191,1.594 l -13.262,52.758 c -6.062,-0.715 -9.09,-3.664 -9.09,-8.938 0,-1.597 0,-3.668 4.309,-14.843 0.312,-0.953 0.879,-2.321 0.879,-3.914 0,-3.594 -2.563,-6.543 -6.543,-6.543 -7.586,0 -10.547,11.574 -10.547,12.293 0,0.8 0.805,0.8 0.965,0.8 0.793,0 0.879,-0.16 1.269,-1.441 2.161,-7.586 5.348,-9.894 8.063,-9.894 0.641,0 1.996,0 1.996,2.546 0,2.086 -0.793,4.071 -1.836,6.871 -3.828,10.055 -3.828,12.129 -3.828,13.485 0,7.582 6.226,10.859 13.887,11.336 -0.641,2.875 -0.641,3.039 -1.758,7.269 -0.238,0.879 -1.832,7.348 -1.832,7.586 0,0.074 0,0.789 0.953,0.789 0.164,0 0.566,0 0.726,-0.312 0.243,-0.164 0.719,-2.16 0.957,-3.278 l 3.04,-11.89 c 2.949,0 9.968,0 17.476,-8.539 3.277,-3.676 4.945,-7.192 5.824,-9.578 0.719,-1.996 2.477,-8.942 2.477,-12.457 0,-4.469 -2.16,-5.586 -3.516,-5.586 -1.996,0 -3.996,2.07 -3.996,3.828 0,1.043 0.492,1.519 1.207,2.16 0.879,0.879 2.875,2.949 2.875,6.781 0,5.11 -4.156,11.653 -6.941,14.528 -7.031,7.105 -12.145,7.105 -15.02,7.105 l 13.172,-52.445"
         style="fill:#000000;fill-opacity:1;fill-rule:nonzero;stroke:none"
         transform="scale(1.3333333)" />
      <path
         id="path14"
         d="m 899.855,1203.191 c 0.907,0 2.262,0 2.262,-1.355 0,-1.406 -1.293,-1.406 -2.262,-1.406 h -33.66 c -0.906,0 -2.261,0 -2.261,1.355 0,1.406 1.293,1.406 2.261,1.406 h 33.66"
         style="fill:#000000;fill-opacity:1;fill-rule:nonzero;stroke:none"
         transform="scale(1.3333333)" />
      <path
         id="path15"
         d="m 927.379,1180.039 c 0,-1.531 -0.113,-1.582 -1.695,-1.582 -3.614,3.555 -8.75,3.602 -11.075,3.602 v 2.035 c 1.356,0 5.086,0 8.2,-1.582 v 28.816 c 0,1.871 0,2.598 -5.649,2.598 h -2.148 v 2.035 c 1.015,-0.051 7.961,-0.227 10.058,-0.227 1.746,0 8.864,0.176 10.106,0.227 v -2.035 h -2.145 c -5.652,0 -5.652,-0.727 -5.652,-2.598 v -31.289"
         style="fill:#000000;fill-opacity:1;fill-rule:nonzero;stroke:none"
         transform="scale(1.3333333)" />
      <path
         id="path16"
         d="m 971.035,1268.871 c 0,-0.238 0,-0.402 -1.355,-1.758 -9.969,-10.058 -12.532,-25.148 -12.532,-37.351 0,-13.903 3.04,-27.789 12.86,-37.77 1.027,-0.953 1.027,-1.117 1.027,-1.355 0,-0.555 -0.312,-0.793 -0.789,-0.793 -0.805,0 -7.988,5.426 -12.695,15.57 -4.067,8.777 -5.035,17.641 -5.035,24.348 0,6.215 0.879,15.883 5.273,24.898 4.785,9.817 11.652,15.004 12.457,15.004 0.477,0 0.789,-0.238 0.789,-0.793"
         style="fill:#000000;fill-opacity:1;fill-rule:nonzero;stroke:none"
         transform="scale(1.3333333)" />
      <path
         id="path17"
         d="m 991.289,1229.762 c 0,-2.324 -1.922,-4.235 -4.23,-4.235 -2.325,0 -4.231,1.911 -4.231,4.235 0,2.308 1.906,4.23 4.231,4.23 2.308,0 4.23,-1.922 4.23,-4.23"
         style="fill:#000000;fill-opacity:1;fill-rule:nonzero;stroke:none"
         transform="scale(1.3333333)" />
      <path
         id="path18"
         d="m 1020.719,1229.762 c 0,-6.231 -0.879,-15.899 -5.262,-24.914 -4.793,-9.817 -11.648,-15.004 -12.453,-15.004 -0.477,0 -0.805,0.316 -0.805,0.793 0,0.238 0,0.402 1.52,1.843 7.824,7.899 12.379,20.594 12.379,37.282 0,13.644 -2.961,27.695 -12.856,37.754 -1.043,0.953 -1.043,1.117 -1.043,1.355 0,0.477 0.328,0.793 0.805,0.793 0.805,0 7.984,-5.426 12.695,-15.559 4.067,-8.789 5.02,-17.64 5.02,-24.343"
         style="fill:#000000;fill-opacity:1;fill-rule:nonzero;stroke:none"
         transform="scale(1.3333333)" />
    </g>
    <path
       id="path19"
       d="m 449.39599,515.65065 c 0,13.584 -11.62,24.59467 -25.95333,24.59467 -14.33334,0 -25.95334,-11.01067 -25.95334,-24.59467 0,-13.588 11.62,-24.59866 25.95334,-24.59866 14.33333,0 25.95333,11.01066 25.95333,24.59866 z"
       style="fill:#18aae4;fill-opacity:0.290096;fill-rule:nonzero;stroke:#000000;stroke-width:6;stroke-linecap:round;stroke-linejoin:miter;stroke-miterlimit:4;stroke-dasharray:none;stroke-opacity:1" />
    <path
       id="path20"
       d="m 316.11999,752.44265 c 0,13.584 -11.62,24.59866 -25.95333,24.59866 -14.33333,0 -25.95333,-11.01466 -25.95333,-24.59866 0,-13.58267 11.62,-24.59867 25.95333,-24.59867 14.33333,0 25.95333,11.016 25.95333,24.59867 z"
       style="fill:#18aae4;fill-opacity:0.290096;fill-rule:nonzero;stroke:#000000;stroke-width:6;stroke-linecap:round;stroke-linejoin:miter;stroke-miterlimit:4;stroke-dasharray:none;stroke-opacity:1" />
    <path
       id="path21"
       d="m 1314.3386,537.73998 c 0,13.58267 -11.62,24.59867 -25.9533,24.59867 -14.3333,0 -25.9533,-11.016 -25.9533,-24.59867 0,-13.58933 11.62,-24.59999 25.9533,-24.59999 14.3333,0 25.9533,11.01066 25.9533,24.59999 z"
       style="fill:#18aae4;fill-opacity:0.290096;fill-rule:nonzero;stroke:#000000;stroke-width:6;stroke-linecap:round;stroke-linejoin:miter;stroke-miterlimit:4;stroke-dasharray:none;stroke-opacity:1" />
    <path
       id="path22"
       d="m 1434.3333,796.38531 c 0,13.584 -11.62,24.59867 -25.9533,24.59867 -14.3334,0 -25.9534,-11.01467 -25.9534,-24.59867 0,-13.588 11.62,-24.59866 25.9534,-24.59866 14.3333,0 25.9533,11.01066 25.9533,24.59866 z"
       style="fill:#18aae4;fill-opacity:0.290096;fill-rule:nonzero;stroke:#000000;stroke-width:6;stroke-linecap:round;stroke-linejoin:miter;stroke-miterlimit:4;stroke-dasharray:none;stroke-opacity:1" />
    <path
       id="path23"
       d="m 442.86932,432.46399 11.33867,-12.59467 c 1.25067,-1.35333 1.828,-2.04133 9.88,-2.04133 v -4.55734 c -3.38533,0.19867 -8.432,0.292 -8.916,0.292 -2.42667,0 -7.27067,-0.18266 -9.984,-0.292 v 4.55734 c 1.35333,0 2.53067,0.19866 3.68667,0.86933 -0.396,0.57867 -0.396,0.776 -0.776,1.172 l -8.14,9.104 -9.49467,-11.14533 h 3.86933 v -4.55734 c -2.516,0.10934 -8.62533,0.292 -11.71866,0.292 -3.09334,0 -7.46934,-0.18266 -10.656,-0.292 v 4.55734 h 6.87466 l 15.12,17.83333 -12.69866,14.24 c -1.64534,1.844 -5.13467,1.844 -9.78534,1.844 v 4.55733 c 3.38534,-0.19866 8.432,-0.292 8.916,-0.292 2.42667,0 8.036,0.19734 9.984,0.292 v -4.55733 c -1.74933,0 -3.59333,-0.49067 -3.59333,-1.068 0,-0.0933 0,-0.18267 0.68267,-0.964 l 9.40533,-10.56267 10.65733,12.59467 h -3.78133 v 4.55733 c 2.51467,-0.0947 8.42667,-0.292 11.62933,-0.292 3.09467,0 7.45334,0.19734 10.652,0.292 v -4.55733 h -6.876 l -16.276,-19.28133"
       style="fill:#000000;fill-opacity:1;fill-rule:nonzero;stroke:none;stroke-width:1.33333" />
    <path
       id="path24"
       d="m 484.73999,443.84932 h 6.99466 c 1.296,0 2.19734,0 2.19734,-1.51067 0,-0.95866 -0.90134,-0.95866 -2.06267,-0.95866 h -6.52 l 2.54667,-10.15067 c 0.0573,-0.35467 0.19733,-0.688 0.19733,-0.964 0,-1.23467 -0.96267,-2.192 -2.33333,-2.192 -1.708,0 -2.744,1.156 -3.21867,2.94267 -0.484,1.71866 0.41733,-1.57334 -2.604,10.364 h -6.99467 c -1.312,0 -2.19733,0 -2.19733,1.50533 0,0.964 0.82267,0.964 2.05733,0.964 h 6.50934 l -4.036,16.18667 c -0.412,1.704 -1.036,4.172 -1.036,5.07333 0,4.04133 3.42666,6.51067 7.344,6.51067 7.604,0 11.93733,-9.604 11.93733,-10.48934 0,-0.896 -0.90133,-0.896 -1.1,-0.896 -0.82267,0 -0.9,0.13467 -1.448,1.30667 -1.92133,4.31867 -5.41067,8.156 -9.192,8.156 -1.432,0 -2.39067,-0.88533 -2.39067,-3.35333 0,-0.688 0.27067,-2.136 0.412,-2.81734 l 4.93734,-19.67733"
       style="fill:#000000;fill-opacity:1;fill-rule:nonzero;stroke:none;stroke-width:1.33333" />
    <path
       id="path25"
       d="m 276.20266,848.07331 11.896,-13.204 c 1.308,-1.42133 1.91733,-2.14 10.36,-2.14 v -4.78133 c -3.552,0.208 -8.844,0.30266 -9.35467,0.30266 -2.54133,0 -7.62533,-0.188 -10.468,-0.30266 v 4.78133 c 1.42134,0 2.65067,0.208 3.864,0.91067 -0.412,0.60533 -0.412,0.81333 -0.812,1.22933 l -8.53733,9.54667 -9.95733,-11.68667 h 4.05733 v -4.78133 c -2.636,0.11466 -9.048,0.30266 -12.292,0.30266 -3.24533,0 -7.83333,-0.188 -11.172,-0.30266 v 4.78133 h 7.208 l 15.86,18.70267 -13.31867,14.932 c -1.72933,1.93333 -5.39066,1.93333 -10.26533,1.93333 v 4.78133 c 3.552,-0.20933 8.844,-0.30266 9.35467,-0.30266 2.54133,0 8.42133,0.20266 10.468,0.30266 v -4.78133 c -1.83867,0 -3.77067,-0.51067 -3.77067,-1.12 0,-0.0947 0,-0.19333 0.71867,-1.00533 l 9.86533,-11.07867 11.172,13.204 h -3.964 v 4.78133 c 2.64,-0.1 8.83867,-0.30266 12.19733,-0.30266 3.24534,0 7.81867,0.20266 11.172,0.30266 v -4.78133 h -7.208 l -17.07333,-20.224"
       style="fill:#000000;fill-opacity:1;fill-rule:nonzero;stroke:none;stroke-width:1.33333" />
    <path
       id="path26"
       d="m 320.11999,860.01598 h 7.33334 c 1.35866,0 2.30133,0 2.30133,-1.584 0,-1.00534 -0.94267,-1.00534 -2.156,-1.00534 h -6.844 l 2.672,-10.64533 c 0.0627,-0.36933 0.20933,-0.71867 0.20933,-1.01067 0,-1.292 -1.00533,-2.30133 -2.448,-2.30133 -1.78666,0 -2.876,1.21867 -3.37066,3.088 -0.51467,1.80667 0.43333,-1.64533 -2.73467,10.86933 h -7.33733 c -1.376,0 -2.30267,0 -2.30267,1.584 0,1.00534 0.864,1.00534 2.156,1.00534 h 6.828 l -4.23333,16.97866 c -0.43334,1.792 -1.08934,4.38 -1.08934,5.32267 0,4.23467 3.59334,6.828 7.70267,6.828 7.98,0 12.52133,-10.072 12.52133,-11 0,-0.94267 -0.948,-0.94267 -1.15066,-0.94267 -0.86534,0 -0.948,0.14134 -1.52134,1.376 -2.016,4.52 -5.67733,8.552 -9.64,8.552 -1.5,0 -2.51066,-0.928 -2.51066,-3.516 0,-0.724 0.292,-2.24 0.432,-2.95866 l 5.18266,-20.64"
       style="fill:#000000;fill-opacity:1;fill-rule:nonzero;stroke:none;stroke-width:1.33333" />
    <path
       id="path27"
       d="m 366.41199,872.16664 h 22.01467 c 0.928,0 2.652,0 2.652,-1.72933 0,-1.78667 -1.64667,-1.78667 -2.652,-1.78667 h -22.01467 v -22.09333 c 0,-0.92667 0,-2.656 -1.724,-2.656 -1.792,0 -1.792,1.64533 -1.792,2.656 v 22.09333 h -22.09333 c -0.928,0 -2.652,0 -2.652,1.724 0,1.792 1.64666,1.792 2.652,1.792 h 22.09333 v 22.07867 c 0,0.94267 0,2.66667 1.72933,2.66667 1.78667,0 1.78667,-1.66134 1.78667,-2.66667 v -22.07867"
       style="fill:#000000;fill-opacity:1;fill-rule:nonzero;stroke:none;stroke-width:1.33333" />
    <path
       id="path28"
       d="m 419.61466,842.68798 c 0,-1.948 -0.14534,-2.016 -2.156,-2.016 -4.604,4.52533 -11.14667,4.588 -14.09867,4.588 v 2.58933 c 1.72267,0 6.47333,0 10.43733,-2.01067 v 36.688 c 0,2.38 0,3.30667 -7.19333,3.30667 h -2.73467 v 2.588 c 1.292,-0.0613 10.136,-0.28533 12.80267,-0.28533 2.224,0 11.28667,0.224 12.86933,0.28533 v -2.588 h -2.73466 c -7.192,0 -7.192,-0.92667 -7.192,-3.30667 v -39.83866"
       style="fill:#000000;fill-opacity:1;fill-rule:nonzero;stroke:none;stroke-width:1.33333" />
    <path
       id="path29"
       d="m 1209.4373,857.47331 c 0.1827,-0.276 0.4587,-0.92133 0.4587,-1.276 0,-0.64533 -0.104,-0.73333 -2.1987,-0.73333 h -62.952 c -2.1,0 -2.1827,0.088 -2.1827,0.73333 0,0.35467 0.2707,1 0.4587,1.276 l 30.7387,61.57867 c 0.6466,1.188 0.9173,1.73466 2.4693,1.73466 1.5467,0 1.8227,-0.54666 2.4533,-1.73466 z m -55.568,4.56267 h 50.084 l -25,50.16666 z"
       style="fill:#000000;fill-opacity:1;fill-rule:nonzero;stroke:none;stroke-width:1.33333" />
    <path
       id="path30"
       d="m 1258.4693,856.82798 c 0.104,-0.35867 0.276,-0.90667 0.276,-1.364 0,-0.91734 -0.636,-1.00534 -1.0947,-1.00534 -0.9013,0 -1.0053,0.18667 -1.3586,1.82267 l -15.156,60.30267 c -6.9334,-0.81867 -10.3907,-4.19334 -10.3907,-10.22 0,-1.82267 0,-4.192 4.9213,-16.96267 0.36,-1.08933 1.0054,-2.652 1.0054,-4.47467 0,-4.104 -2.9267,-7.47866 -7.4747,-7.47866 -8.6707,0 -12.0573,13.23466 -12.0573,14.052 0,0.916 0.9173,0.916 1.1053,0.916 0.9053,0 1.0053,-0.18667 1.452,-1.65067 2.464,-8.66667 6.1093,-11.30667 9.2093,-11.30667 0.7334,0 2.2867,0 2.2867,2.91067 0,2.38533 -0.9067,4.652 -2.1,7.84933 -4.3747,11.49467 -4.3747,13.864 -4.3747,15.41734 0,8.66666 7.12,12.41066 15.8694,12.95733 -0.728,3.28133 -0.728,3.46933 -2.004,8.308 -0.2774,1.00533 -2.1,8.39599 -2.1,8.66669 0,0.088 0,0.9053 1.0946,0.9053 0.1814,0 0.6454,0 0.828,-0.3587 0.276,-0.188 0.8227,-2.46929 1.0934,-3.74529 l 3.4733,-13.59333 c 3.3707,0 11.3907,0 19.9747,-9.75467 3.7453,-4.20933 5.6506,-8.224 6.656,-10.95333 0.8226,-2.28134 2.828,-10.21334 2.828,-14.23467 0,-5.10933 -2.468,-6.38533 -4.016,-6.38533 -2.28,0 -4.5667,2.36933 -4.5667,4.38 0,1.188 0.5627,1.73466 1.38,2.464 1.0053,1.00533 3.2867,3.37466 3.2867,7.74933 0,5.844 -4.7507,13.31867 -7.9374,16.604 -8.0373,8.12533 -13.876,8.12533 -17.1626,8.12533 l 15.0533,-59.94266"
       style="fill:#000000;fill-opacity:1;fill-rule:nonzero;stroke:none;stroke-width:1.33333" />
    <path
       id="path31"
       d="m 1307.1453,939.672 c 0,-0.2707 0,-0.4587 -1.5467,-2.0107 -11.396,-11.49466 -14.3226,-28.74399 -14.3226,-42.69199 0,-15.88667 3.4733,-31.756 14.6933,-43.16667 1.176,-1.08933 1.176,-1.276 1.176,-1.548 0,-0.62933 -0.3587,-0.90533 -0.9,-0.90533 -0.9227,0 -9.1307,6.20267 -14.5107,17.796 -4.652,10.032 -5.756,20.16133 -5.756,27.824 0,7.104 1.0054,18.156 6.0267,28.45733 5.468,11.22396 13.3173,17.15196 14.24,17.15196 0.5413,0 0.9,-0.276 0.9,-0.9066"
       style="fill:#000000;fill-opacity:1;fill-rule:nonzero;stroke:none;stroke-width:1.33333" />
    <path
       id="path32"
       d="m 1344.344,895.32798 10.6773,-11.85467 c 1.176,-1.276 1.7187,-1.92133 9.296,-1.92133 v -4.292 c -3.1813,0.188 -7.932,0.276 -8.396,0.276 -2.2813,0 -6.8427,-0.172 -9.3947,-0.276 v 4.292 c 1.276,0 2.38,0.188 3.468,0.81733 -0.3693,0.548 -0.3693,0.73467 -0.7293,1.104 l -7.6613,8.568 -8.9427,-10.48933 h 3.6453 v -4.292 c -2.3693,0.104 -8.124,0.276 -11.036,0.276 -2.9106,0 -7.0306,-0.172 -10.0306,-0.276 v 4.292 h 6.4733 l 14.2347,16.792 -11.9534,13.40133 c -1.552,1.73867 -4.8386,1.73867 -9.2133,1.73867 v 4.28666 c 3.188,-0.18266 7.9373,-0.27066 8.396,-0.27066 2.2813,0 7.5627,0.188 9.4013,0.27066 v -4.28666 c -1.652,0 -3.3906,-0.46267 -3.3906,-1.00534 0,-0.088 0,-0.172 0.6453,-0.90533 l 8.8547,-9.94267 10.0306,11.85334 h -3.5573 v 4.28666 c 2.3693,-0.0827 7.9373,-0.27066 10.948,-0.27066 2.912,0 7.0213,0.188 10.0307,0.27066 v -4.28666 h -6.468 l -15.328,-18.156"
       style="fill:#000000;fill-opacity:1;fill-rule:nonzero;stroke:none;stroke-width:1.33333" />
    <path
       id="path33"
       d="m 1383.7653,906.04664 h 6.584 c 1.224,0 2.0667,0 2.0667,-1.416 0,-0.90666 -0.8427,-0.90666 -1.9374,-0.90666 h -6.14 l 2.396,-9.55734 c 0.057,-0.328 0.1867,-0.64533 0.1867,-0.90666 0,-1.16134 -0.9053,-2.06267 -2.1973,-2.06267 -1.604,0 -2.584,1.08933 -3.0267,2.76667 -0.4573,1.624 0.3853,-1.47467 -2.452,9.76 h -6.5893 c -1.2347,0 -2.068,0 -2.068,1.42133 0,0.90133 0.776,0.90133 1.9386,0.90133 h 6.1294 l -3.8014,15.24534 c -0.3906,1.604 -0.98,3.92666 -0.98,4.776 0,3.80133 3.2294,6.12933 6.9174,6.12933 7.1613,0 11.2386,-9.04133 11.2386,-9.87467 0,-0.84933 -0.848,-0.84933 -1.036,-0.84933 -0.7706,0 -0.844,0.13067 -1.3586,1.23467 -1.8134,4.06266 -5.0947,7.67733 -8.6574,7.67733 -1.348,0 -2.2493,-0.828 -2.2493,-3.156 0,-0.64533 0.2547,-2.01067 0.3853,-2.656 l 4.6507,-18.52667"
       style="fill:#000000;fill-opacity:1;fill-rule:nonzero;stroke:none;stroke-width:1.33333" />
    <path
       id="path34"
       d="m 1425.3226,916.95331 h 19.76 c 0.8347,0 2.3814,0 2.3814,-1.54667 0,-1.60933 -1.4747,-1.60933 -2.3814,-1.60933 h -19.76 v -19.83333 c 0,-0.828 0,-2.38 -1.552,-2.38 -1.604,0 -1.604,1.47866 -1.604,2.38 v 19.83333 h -19.8333 c -0.8333,0 -2.38,0 -2.38,1.552 0,1.604 1.4733,1.604 2.38,1.604 h 19.8333 v 19.81729 c 0,0.8494 0,2.4014 1.5467,2.4014 1.6093,0 1.6093,-1.4947 1.6093,-2.4014 v -19.81729"
       style="fill:#000000;fill-opacity:1;fill-rule:nonzero;stroke:none;stroke-width:1.33333" />
    <path
       id="path35"
       d="m 1473.0826,890.49464 c 0,-1.74933 -0.1293,-1.80666 -1.9373,-1.80666 -4.1347,4.05733 -10.0053,4.11466 -12.6613,4.11466 v 2.328 c 1.552,0 5.8133,0 9.376,-1.81333 v 32.93733 c 0,2.136 0,2.96934 -6.4587,2.96934 h -2.4533 v 2.328 c 1.1613,-0.0573 9.0986,-0.26 11.4946,-0.26 1.9947,0 10.1307,0.20266 11.552,0.26 v -2.328 h -2.4586 c -6.4534,0 -6.4534,-0.83334 -6.4534,-2.96934 v -35.76"
       style="fill:#000000;fill-opacity:1;fill-rule:nonzero;stroke:none;stroke-width:1.33333" />
    <path
       id="path36"
       d="m 1519.1453,894.96931 c 0,-7.11467 -1.0053,-18.16667 -6.0147,-28.46933 -5.48,-11.224 -13.3133,-17.15067 -14.2346,-17.15067 -0.5414,0 -0.9174,0.35867 -0.9174,0.90533 0,0.272 0,0.45867 1.7347,2.10934 8.9427,9.02666 14.1507,23.53733 14.1507,42.60533 0,15.59867 -3.3854,31.656 -14.692,43.15069 -1.1934,1.0933 -1.1934,1.2813 -1.1934,1.552 0,0.5466 0.376,0.9066 0.9174,0.9066 0.9213,0 9.1306,-6.204 14.5106,-17.78129 4.6507,-10.048 5.7387,-20.16133 5.7387,-27.828"
       style="fill:#000000;fill-opacity:1;fill-rule:nonzero;stroke:none;stroke-width:1.33333" />
    <path
       id="path37"
       d="m 1243.6506,423.35999 c 0.1667,-0.24534 0.412,-0.824 0.412,-1.14134 0,-0.57866 -0.089,-0.656 -1.964,-0.656 h -56.276 c -1.8693,0 -1.948,0.0773 -1.948,0.656 0,0.31734 0.2454,0.896 0.412,1.14134 l 27.4734,55.04133 c 0.5786,1.068 0.824,1.552 2.2093,1.552 1.3853,0 1.6293,-0.484 2.192,-1.552 z m -49.6666,4.07733 h 44.7653 l -22.3427,44.84933 z"
       style="fill:#000000;fill-opacity:1;fill-rule:nonzero;stroke:none;stroke-width:1.33333" />
    <path
       id="path38"
       d="m 1287.484,422.78132 c 0.089,-0.31733 0.2453,-0.808 0.2453,-1.21867 0,-0.81733 -0.568,-0.896 -0.9747,-0.896 -0.812,0 -0.9,0.16667 -1.2186,1.63067 l -13.5467,53.9 c -6.1973,-0.73333 -9.2867,-3.744 -9.2867,-9.13467 0,-1.63066 0,-3.74533 4.396,-15.16133 0.3227,-0.97467 0.9014,-2.37467 0.9014,-4 0,-3.672 -2.62,-6.688 -6.6827,-6.688 -7.7493,0 -10.776,11.828 -10.776,12.56267 0,0.81733 0.8187,0.81733 0.9853,0.81733 0.812,0 0.9,-0.16667 1.296,-1.47333 2.208,-7.75067 5.464,-10.10934 8.2347,-10.10934 0.656,0 2.0413,0 2.0413,2.604 0,2.13067 -0.8066,4.156 -1.8746,7.016 -3.912,10.276 -3.912,12.396 -3.912,13.78134 0,7.744 6.3653,11.09333 14.188,11.58266 -0.6507,2.93734 -0.6507,3.104 -1.7974,7.42667 -0.2386,0.896 -1.8693,7.5 -1.8693,7.74533 0,0.0787 0,0.80667 0.9733,0.80667 0.1667,0 0.5787,0 0.7454,-0.31733 0.2453,-0.16667 0.7293,-2.208 0.9746,-3.34934 l 3.104,-12.14533 c 3.0147,0 10.1867,0 17.8534,-8.724 3.3493,-3.76 5.0573,-7.34933 5.9533,-9.78667 0.7347,-2.04133 2.5267,-9.13466 2.5267,-12.72933 0,-4.56133 -2.204,-5.708 -3.5894,-5.708 -2.0413,0 -4.0773,2.12 -4.0773,3.91733 0,1.06267 0.5,1.552 1.2293,2.20267 0.8947,0.90133 2.9374,3.016 2.9374,6.92667 0,5.224 -4.2454,11.90666 -7.0947,14.844 -7.1813,7.26 -12.4053,7.26 -15.3427,7.26 l 13.4574,-53.58267"
       style="fill:#000000;fill-opacity:1;fill-rule:nonzero;stroke:none;stroke-width:1.33333" />
    <path
       id="path39"
       d="m 1331.8173,496.83865 c 0,-0.24533 0,-0.412 -1.3853,-1.79733 -10.1867,-10.276 -12.8014,-25.692 -12.8014,-38.16133 0,-14.20267 3.104,-28.39067 13.1347,-38.588 1.052,-0.97467 1.052,-1.14134 1.052,-1.38534 0,-0.56266 -0.3227,-0.808 -0.8067,-0.808 -0.8226,0 -8.1613,5.54134 -12.9693,15.90667 -4.156,8.968 -5.1453,18.02133 -5.1453,24.87467 0,6.34933 0.896,16.224 5.3853,25.43733 4.8907,10.032 11.9067,15.328 12.7293,15.328 0.484,0 0.8067,-0.244 0.8067,-0.80667"
       style="fill:#000000;fill-opacity:1;fill-rule:nonzero;stroke:none;stroke-width:1.33333" />
    <path
       id="path40"
       d="m 1364.2453,457.19732 9.5413,-10.59333 c 1.052,-1.14 1.5414,-1.71867 8.312,-1.71867 v -3.83867 c -2.844,0.16667 -7.0933,0.24534 -7.5,0.24534 -2.0413,0 -6.12,-0.152 -8.4053,-0.24534 v 3.83867 c 1.1453,0 2.1293,0.16667 3.104,0.72933 -0.3333,0.48934 -0.3333,0.656 -0.652,0.98934 l -6.848,7.656 -7.9947,-9.37467 h 3.26 v -3.83867 c -2.12,0.0933 -7.26,0.24534 -9.8653,0.24534 -2.604,0 -6.2853,-0.152 -8.968,-0.24534 v 3.83867 h 5.7867 l 12.724,15.00533 -10.6827,11.984 c -1.3853,1.552 -4.3227,1.552 -8.2347,1.552 v 3.83334 c 2.844,-0.16667 7.0894,-0.244 7.5,-0.244 2.0414,0 6.76,0.16666 8.4067,0.244 v -3.83334 c -1.4787,0 -3.032,-0.41066 -3.032,-0.9 0,-0.0733 0,-0.152 0.5787,-0.808 l 7.9173,-8.89066 8.9627,10.59866 h -3.1827 v 3.83334 c 2.12,-0.0773 7.0947,-0.244 9.792,-0.244 2.604,0 6.2707,0.16666 8.964,0.244 v -3.83334 h -5.7813 l -13.7027,-16.22933"
       style="fill:#000000;fill-opacity:1;fill-rule:nonzero;stroke:none;stroke-width:1.33333" />
    <path
       id="path41"
       d="m 1399.484,466.78132 h 5.8853 c 1.0947,0 1.8493,0 1.8493,-1.27067 0,-0.808 -0.7546,-0.808 -1.7346,-0.808 h -5.4894 l 2.1414,-8.54133 c 0.052,-0.29733 0.1666,-0.57733 0.1666,-0.80667 0,-1.04266 -0.808,-1.84933 -1.9586,-1.84933 -1.4374,0 -2.3134,0.97333 -2.708,2.47333 -0.412,1.45334 0.348,-1.31733 -2.1934,8.724 h -5.8906 c -1.0987,0 -1.844,0 -1.844,1.27067 0,0.808 0.6933,0.808 1.7293,0.808 h 5.48 l -3.4013,13.62533 c -0.344,1.43734 -0.8707,3.51467 -0.8707,4.27067 0,3.40133 2.8853,5.47333 6.1827,5.47333 6.4013,0 10.0413,-8.07733 10.0413,-8.82266 0,-0.75467 -0.7547,-0.75467 -0.9213,-0.75467 -0.6934,0 -0.7547,0.11467 -1.2187,1.104 -1.6147,3.62933 -4.552,6.85867 -7.7347,6.85867 -1.208,0 -2.016,-0.744 -2.016,-2.82267 0,-0.57733 0.2347,-1.792 0.3494,-2.36933 l 4.156,-16.56267"
       style="fill:#000000;fill-opacity:1;fill-rule:nonzero;stroke:none;stroke-width:1.33333" />
    <path
       id="path42"
       d="m 1438.4013,456.87999 c 0,-6.364 -0.896,-16.24 -5.3747,-25.45334 -4.9013,-10.03066 -11.9013,-15.328 -12.724,-15.328 -0.4906,0 -0.824,0.32267 -0.824,0.808 0,0.244 0,0.41067 1.552,1.88534 7.996,8.068 12.652,21.036 12.652,38.088 0,13.94266 -3.0266,28.29733 -13.136,38.57333 -1.068,0.97333 -1.068,1.14 -1.068,1.38533 0,0.484 0.3334,0.80667 0.824,0.80667 0.8227,0 8.156,-5.54133 12.968,-15.896 4.156,-8.97867 5.1307,-18.02 5.1307,-24.86933"
       style="fill:#000000;fill-opacity:1;fill-rule:nonzero;stroke:none;stroke-width:1.33333" />
    <path
       id="path43"
       d="m 1308.3546,583.39598 67.728,155.38533"
       style="fill:none;stroke:#000000;stroke-width:7;stroke-linecap:butt;stroke-linejoin:miter;stroke-miterlimit:4;stroke-dasharray:none;stroke-opacity:1" />
    <path
       id="path44"
       d="m 1364.8967,713.10973 -18.4278,-7.24076 32.4113,39.32859 -6.7441,-50.51507 z"
       style="fill:#000000;fill-opacity:1;fill-rule:evenodd;stroke:#000000;stroke-width:3.73334;stroke-linecap:butt;stroke-linejoin:miter;stroke-miterlimit:4;stroke-dasharray:none;stroke-opacity:1" />
    <path
       id="path45"
       d="m 1432.812,604.02132 c 0.152,-0.21867 0.3706,-0.74534 0.3706,-1.03734 0,-0.52533 -0.079,-0.59333 -1.7813,-0.59333 h -51.188 c -1.708,0 -1.776,0.068 -1.776,0.59333 0,0.292 0.224,0.81867 0.3747,1.03734 l 24.9906,50.06666 c 0.5254,0.96934 0.7494,1.412 2.0094,1.412 1.2613,0 1.48,-0.44266 1.9946,-1.412 z m -45.1814,3.71333 h 40.724 l -20.328,40.792 z"
       style="fill:#000000;fill-opacity:1;fill-rule:nonzero;stroke:none;stroke-width:1.33333" />
    <path
       id="path46"
       d="m 1464.1506,623.37998 h 6.38 c 1.4854,0 2.2294,0 2.2294,-1.484 0,-0.81333 -0.744,-0.81333 -2.0054,-0.81333 h -6.1613 l 1.5627,-8.46267 c 0.292,-1.552 1.3333,-6.82266 1.776,-7.708 0.6773,-1.412 1.9373,-2.52133 3.4893,-2.52133 0.3027,0 2.224,0 3.6413,1.328 -3.2706,0.30267 -4.016,2.896 -4.016,4.016 0,1.70267 1.3387,2.588 2.756,2.588 1.9214,0 4.0667,-1.63467 4.0667,-4.44267 0,-3.42133 -3.4053,-5.12533 -6.448,-5.12533 -2.52,0 -7.1867,1.33333 -9.416,8.68267 -0.448,1.552 -0.6667,2.29733 -2.4533,11.64533 h -5.12 c -1.4014,0 -2.2187,0 -2.2187,1.412 0,0.88533 0.6667,0.88533 2.0787,0.88533 h 4.8906 l -5.568,29.29734 c -1.328,7.19733 -2.588,13.94266 -6.4533,13.94266 -0.292,0 -2.1453,0 -3.5573,-1.328 3.4173,-0.224 4.084,-2.896 4.084,-4.00533 0,-1.71333 -1.344,-2.59867 -2.7454,-2.59867 -1.932,0 -4.0826,1.63467 -4.0826,4.45734 0,3.33333 3.2706,5.10933 6.3013,5.10933 4.084,0 7.0467,-4.37467 8.3907,-7.18667 2.3693,-4.67733 4.0733,-13.652 4.1506,-14.17733 l 4.448,-23.51067"
       style="fill:#000000;fill-opacity:1;fill-rule:nonzero;stroke:none;stroke-width:1.33333" />
    <path
       id="path47"
       d="m 1506.2813,670.85998 c 0,-0.224 0,-0.376 -1.2547,-1.636 -9.2666,-9.34933 -11.6466,-23.36933 -11.6466,-34.71333 0,-12.91733 2.8226,-25.82267 11.948,-35.09867 0.9533,-0.88533 0.9533,-1.03733 0.9533,-1.256 0,-0.516 -0.292,-0.74 -0.7347,-0.74 -0.744,0 -7.4213,5.04267 -11.7973,14.46934 -3.776,8.156 -4.676,16.396 -4.676,22.62533 0,5.776 0.8173,14.76 4.9,23.14 4.448,9.12 10.8293,13.94266 11.5733,13.94266 0.4427,0 0.7347,-0.224 0.7347,-0.73333"
       style="fill:#000000;fill-opacity:1;fill-rule:nonzero;stroke:none;stroke-width:1.33333" />
    <path
       id="path48"
       d="m 1535.7813,634.80265 8.6773,-9.636 c 0.9574,-1.04133 1.4014,-1.56267 7.5627,-1.56267 v -3.48933 c -2.5893,0.15067 -6.4533,0.21867 -6.824,0.21867 -1.8587,0 -5.5667,-0.14 -7.6453,-0.21867 v 3.48933 c 1.0413,0 1.9373,0.15067 2.8226,0.66134 -0.3013,0.44266 -0.3013,0.59466 -0.5933,0.90133 l -6.2293,6.964 -7.2707,-8.52667 h 2.964 v -3.48933 c -1.9227,0.0787 -6.6053,0.21867 -8.9747,0.21867 -2.364,0 -5.7133,-0.14 -8.1506,-0.21867 v 3.48933 h 5.26 l 11.5733,13.65067 -9.7187,10.896 c -1.2613,1.412 -3.932,1.412 -7.4893,1.412 v 3.48933 c 2.588,-0.15066 6.452,-0.224 6.8227,-0.224 1.8586,0 6.1506,0.15067 7.6453,0.224 v -3.48933 c -1.344,0 -2.7547,-0.37467 -2.7547,-0.81733 0,-0.068 0,-0.14134 0.5254,-0.73467 l 7.1986,-8.084 8.156,9.636 h -2.896 v 3.48933 c 1.9267,-0.0733 6.4534,-0.224 8.9067,-0.224 2.364,0 5.7027,0.15067 8.156,0.224 v -3.48933 h -5.2653 l -12.4587,-14.76"
       style="fill:#000000;fill-opacity:1;fill-rule:nonzero;stroke:none;stroke-width:1.33333" />
    <path
       id="path49"
       d="m 1567.8333,643.52132 h 5.3547 c 0.9893,0 1.6813,0 1.6813,-1.15734 0,-0.73333 -0.692,-0.73333 -1.5773,-0.73333 h -4.9947 l 1.948,-7.77067 c 0.047,-0.272 0.1507,-0.52666 0.1507,-0.73466 0,-0.948 -0.7347,-1.68267 -1.7814,-1.68267 -1.308,0 -2.104,0.88533 -2.464,2.25067 -0.3746,1.31733 0.3187,-1.19867 -1.9946,7.93733 h -5.3534 c -1.0053,0 -1.6826,0 -1.6826,1.15067 0,0.74 0.6293,0.74 1.5773,0.74 h 4.98 l -3.0893,12.39066 c -0.3174,1.30667 -0.796,3.19734 -0.796,3.88534 0,3.088 2.624,4.97866 5.624,4.97866 5.824,0 9.136,-7.34933 9.136,-8.02666 0,-0.68667 -0.688,-0.68667 -0.8387,-0.68667 -0.6307,0 -0.6867,0.104 -1.1093,1.00533 -1.468,3.30134 -4.14,6.23867 -7.036,6.23867 -1.0947,0 -1.8334,-0.676 -1.8334,-2.56667 0,-0.52666 0.2134,-1.63066 0.3174,-2.156 l 3.7813,-15.06266"
       style="fill:#000000;fill-opacity:1;fill-rule:nonzero;stroke:none;stroke-width:1.33333" />
    <path
       id="path50"
       d="m 1603.2346,634.51065 c 0,-5.78667 -0.8186,-14.77067 -4.8906,-23.14667 -4.4587,-9.124 -10.828,-13.948 -11.5734,-13.948 -0.4426,0 -0.7493,0.292 -0.7493,0.74 0,0.21867 0,0.37067 1.4107,1.71334 7.2706,7.33866 11.5053,19.136 11.5053,34.64133 0,12.68267 -2.7493,25.74 -11.948,35.088 -0.968,0.88533 -0.968,1.03733 -0.968,1.26133 0,0.44267 0.3067,0.73333 0.7493,0.73333 0.7454,0 7.4174,-5.04133 11.792,-14.45733 3.7814,-8.16666 4.672,-16.396 4.672,-22.62533"
       style="fill:#000000;fill-opacity:1;fill-rule:nonzero;stroke:none;stroke-width:1.33333" />
    <path
       id="path51"
       d="m 400.59866,553.99465 -93.86933,141.136"
       style="fill:none;stroke:#000000;stroke-width:6.99999;stroke-linecap:butt;stroke-linejoin:miter;stroke-miterlimit:4;stroke-dasharray:none;stroke-opacity:1" />
    <path
       id="path52"
       d="m 322.23395,671.81697 -3.90035,-19.41033 -15.48412,48.55211 38.79612,-33.04702 z"
       style="fill:#000000;fill-opacity:1;fill-rule:evenodd;stroke:#000000;stroke-width:3.73333;stroke-linecap:butt;stroke-linejoin:miter;stroke-miterlimit:4;stroke-dasharray:none;stroke-opacity:1" />
    <path
       id="path53"
       d="m 71.114665,1223.3173 h 14.478666 c 10.276,0 19.515999,-6.9373 19.515999,-15.5 0,-8.3907 -8.473332,-15.9213 -20.202665,-15.9213 h -30.224 v 2.6506 h 2.046667 c 6.598666,0 6.76,0.9427 6.76,4.032 v 45.1187 c 0,3.084 -0.161334,4.0267 -6.76,4.0267 h -2.046667 v 2.6506 c 2.989334,-0.2546 9.317333,-0.2546 12.577333,-0.2546 3.261334,0 9.672,0 12.677333,0.2546 v -2.6506 h -2.062666 c -6.588,0 -6.76,-0.9427 -6.76,-4.0267 z m -0.254667,-2.224 v -23.124 c 0,-2.8293 0.170667,-3.4227 4.197333,-3.4227 h 7.614667 c 13.614666,0 13.614666,9.0787 13.614666,13.2707 0,4.0267 0,13.276 -13.614666,13.276 h -11.812"
       style="fill:#000000;fill-opacity:1;fill-rule:nonzero;stroke:none;stroke-width:1.33333" />
    <path
       id="path54"
       d="m 124.59866,1221.9426 v -9.412 l -11.90533,0.9427 v 2.652 c 5.99467,0 6.676,0.5933 6.676,4.796 v 22.948 c 0,3.8547 -0.94267,3.8547 -6.676,3.8547 v 2.6506 c 3.33733,-0.077 7.364,-0.2546 9.76533,-0.2546 3.416,0 7.448,0 10.86934,0.2546 v -2.6506 h -1.792 c -6.34267,0 -6.50534,-0.9427 -6.50534,-4.0267 v -13.1867 c 0,-8.4746 3.59467,-16.0946 10.1,-16.0946 0.59334,0 0.76534,0 0.94267,0.079 -0.256,0.093 -1.98,1.12 -1.98,3.344 0,2.396 1.80267,3.6774 3.688,3.6774 1.536,0 3.67733,-1.0267 3.67733,-3.7614 0,-2.744 -2.652,-5.224 -6.328,-5.224 -6.25066,0 -9.33333,5.7347 -10.532,9.412"
       style="fill:#000000;fill-opacity:1;fill-rule:nonzero;stroke:none;stroke-width:1.33333" />
    <path
       id="path55"
       d="m 159.92666,1212.5306 -11.98933,0.9427 v 2.652 c 5.56267,0 6.344,0.5107 6.344,4.7133 v 23.0307 c 0,3.8547 -0.94267,3.8547 -6.67733,3.8547 v 2.6506 c 2.73466,-0.077 7.36533,-0.2546 9.412,-0.2546 3.00533,0 5.99466,0.1773 8.90533,0.2546 v -2.6506 c -5.64533,0 -5.99467,-0.432 -5.99467,-3.7707 z m 0.34934,-14.8946 c 0,-2.7507 -2.14,-4.5427 -4.536,-4.5427 -2.65734,0 -4.54267,2.3027 -4.54267,4.5427 0,2.3013 1.88533,4.536 4.54267,4.536 2.396,0 4.536,-1.8027 4.536,-4.536"
       style="fill:#000000;fill-opacity:1;fill-rule:nonzero;stroke:none;stroke-width:1.33333" />
    <path
       id="path56"
       d="m 177.464,1220.9213 v 22.948 c 0,3.8547 -0.94267,3.8547 -6.68267,3.8547 v 2.6506 c 3.00533,-0.077 7.36933,-0.2546 9.68267,-0.2546 2.224,0 6.68133,0.1773 9.59333,0.2546 v -2.6506 c -5.74,0 -6.68267,0 -6.68267,-3.8547 v -15.7547 c 0,-8.9066 6.07334,-13.6986 11.55734,-13.6986 5.40133,0 6.34399,4.62 6.34399,9.5106 v 19.9427 c 0,3.8547 -0.94266,3.8547 -6.68266,3.8547 v 2.6506 c 2.99067,-0.077 7.37066,-0.2546 9.672,-0.2546 2.23466,0 6.68266,0.1773 9.58933,0.2546 v -2.6506 c -5.74,0 -6.67733,0 -6.67733,-3.8547 v -15.7547 c 0,-8.9066 6.08266,-13.6986 11.568,-13.6986 5.38533,0 6.328,4.62 6.328,9.5106 v 19.9427 c 0,3.8547 -0.94267,3.8547 -6.67734,3.8547 v 2.6506 c 3,-0.077 7.364,-0.2546 9.68267,-0.2546 2.224,0 6.68133,0.1773 9.588,0.2546 v -2.6506 c -4.45867,0 -6.59867,0 -6.67733,-2.5734 v -16.348 c 0,-7.3706 0,-10.0213 -2.656,-13.1093 -1.19734,-1.4533 -4.02667,-3.1627 -8.99467,-3.1627 -7.19333,0 -10.964,5.1307 -12.42133,8.3907 -1.19867,-7.448 -7.52667,-8.3907 -11.38133,-8.3907 -6.24934,0 -10.276,3.6774 -12.672,8.9854 v -8.9854 l -12.08267,0.9427 v 2.652 c 5.99467,0 6.68267,0.5933 6.68267,4.796"
       style="fill:#000000;fill-opacity:1;fill-rule:nonzero;stroke:none;stroke-width:1.33333" />
    <path
       id="path57"
       d="m 268.10933,1243.8693 c 0.34933,3.4227 2.65066,7.0213 6.67733,7.0213 1.792,0 7.02,-1.1973 7.02,-8.136 v -4.796 h -2.14533 v 4.796 c 0,4.9694 -2.14,5.48 -3.08267,5.48 -2.81333,0 -3.16667,-3.8493 -3.16667,-4.2813 v -17.12 c 0,-3.5933 0,-6.9373 -3.084,-10.1147 -3.33866,-3.328 -7.60933,-4.7026 -11.72933,-4.7026 -7.01467,0 -12.932,4.0306 -12.932,9.672 0,2.572 1.724,4.0253 3.948,4.0253 2.396,0 3.932,-1.708 3.932,-3.932 0,-1.036 -0.432,-3.864 -4.364,-3.9427 2.31733,-2.9893 6.50533,-3.932 9.25467,-3.932 4.188,0 9.07866,3.3387 9.07866,10.948 v 3.176 c -4.38,0.256 -10.37066,0.516 -15.76133,3.084 -6.42133,2.912 -8.56133,7.3547 -8.56133,11.1254 0,6.9373 8.30666,9.0773 13.69733,9.0773 5.656,0 9.588,-3.416 11.21867,-7.448 z m -0.59334,-14.0467 v 8.568 c 0,8.136 -6.172,11.0414 -10.02133,11.0414 -4.20267,0 -7.70267,-2.9894 -7.70267,-7.2707 0,-4.7133 3.59334,-11.828 17.724,-12.3387"
       style="fill:#000000;fill-opacity:1;fill-rule:nonzero;stroke:none;stroke-width:1.33333" />
    <path
       id="path58"
       d="m 297.84399,1190.9533 -12.32266,0.9427 v 2.6506 c 5.99466,0 6.68133,0.5934 6.68133,4.7974 v 44.5253 c 0,3.8547 -0.94267,3.8547 -6.68133,3.8547 v 2.6506 c 2.828,-0.077 7.36933,-0.2546 9.49466,-0.2546 2.14534,0 6.344,0.1773 9.51067,0.2546 v -2.6506 c -5.73467,0 -6.68267,0 -6.68267,-3.8547 v -52.916"
       style="fill:#000000;fill-opacity:1;fill-rule:nonzero;stroke:none;stroke-width:1.33333" />
    <path
       id="path59"
       d="m 352.21866,1233.7706 c 1.88533,0.3387 8.91733,1.708 8.91733,7.88 0,4.3654 -3.00533,7.7814 -9.68267,7.7814 -7.19333,0 -10.276,-4.8747 -11.90666,-12.1614 -0.25467,-1.104 -0.33867,-1.4533 -1.19734,-1.4533 -1.10933,0 -1.10933,0.604 -1.10933,2.1413 v 11.3014 c 0,1.4533 0,2.0573 0.948,2.0573 0.42667,0 0.50933,-0.077 2.14,-1.708 0.16133,-0.1773 0.16133,-0.3493 1.708,-1.9693 3.77067,3.6 7.62533,3.6773 9.41733,3.6773 9.844,0 13.792,-5.7333 13.792,-11.9053 0,-4.5374 -2.57333,-7.0947 -3.6,-8.136 -2.828,-2.7294 -6.16666,-3.416 -9.76,-4.104 -4.79733,-0.9427 -10.536,-2.0467 -10.536,-7.0214 0,-3 2.224,-6.5053 9.59334,-6.5053 9.412,0 9.844,7.7093 10.016,10.36 0.0827,0.7653 0.848,0.7653 1.02533,0.7653 1.12,0 1.12,-0.4266 1.12,-2.0466 v -8.656 c 0,-1.4587 0,-2.052 -0.94267,-2.052 -0.432,0 -0.60933,0 -1.71333,1.0253 -0.25467,0.3493 -1.11467,1.12 -1.45333,1.3747 -3.26,-2.4 -6.776,-2.4 -8.052,-2.4 -10.45334,0 -13.70267,5.7386 -13.70267,10.536 0,2.9893 1.37467,5.3853 3.68133,7.2706 2.74534,2.224 5.14134,2.7507 11.29734,3.948"
       style="fill:#000000;fill-opacity:1;fill-rule:nonzero;stroke:none;stroke-width:1.33333" />
    <path
       id="path60"
       d="m 383.63066,1218.188 v -5.6574 l -12.33867,0.9427 v 2.652 c 6.072,0 6.68133,0.5107 6.68133,4.2867 v 40.0666 c 0,3.8494 -0.94266,3.8494 -6.68133,3.8494 v 2.656 c 2.90533,-0.083 7.364,-0.2547 9.588,-0.2547 2.31733,0 6.68267,0.172 9.672,0.2547 v -2.656 c -5.724,0 -6.66667,0 -6.66667,-3.8494 v -15.1506 c 0.41734,1.3693 4.01067,5.9893 10.53067,5.9893 10.18267,0 19.084,-8.3907 19.084,-19.432 0,-10.8853 -8.29733,-19.3547 -17.88533,-19.3547 -6.67734,0 -10.276,3.772 -11.984,5.6574 z m 0.25466,22.4266 v -19.0986 c 2.47867,-4.3654 6.66667,-6.844 11.04134,-6.844 6.25066,0 11.48,7.5253 11.48,17.2133 0,10.3547 -5.99467,17.5467 -12.33867,17.5467 -3.42267,0 -6.68267,-1.708 -8.98533,-5.224 -1.19734,-1.792 -1.19734,-1.8854 -1.19734,-3.5934"
       style="fill:#000000;fill-opacity:1;fill-rule:nonzero;stroke:none;stroke-width:1.33333" />
    <path
       id="path61"
       d="m 444.81732,1243.8693 c 0.34934,3.4227 2.652,7.0213 6.68267,7.0213 1.78667,0 7.016,-1.1973 7.016,-8.136 v -4.796 h -2.14133 v 4.796 c 0,4.9694 -2.14,5.48 -3.088,5.48 -2.81334,0 -3.16134,-3.8493 -3.16134,-4.2813 v -17.12 c 0,-3.5933 0,-6.9373 -3.084,-10.1147 -3.344,-3.328 -7.61466,-4.7026 -11.73466,-4.7026 -7.01467,0 -12.92667,4.0306 -12.92667,9.672 0,2.572 1.724,4.0253 3.94267,4.0253 2.40133,0 3.93733,-1.708 3.93733,-3.932 0,-1.036 -0.432,-3.864 -4.364,-3.9427 2.312,-2.9893 6.50533,-3.932 9.24933,-3.932 4.188,0 9.07867,3.3387 9.07867,10.948 v 3.176 c -4.37467,0.256 -10.36933,0.516 -15.76,3.084 -6.42267,2.912 -8.56267,7.3547 -8.56267,11.1254 0,6.9373 8.30667,9.0773 13.69734,9.0773 5.656,0 9.58933,-3.416 11.21866,-7.448 z m -0.59333,-14.0467 v 8.568 c 0,8.136 -6.16667,11.0414 -10.02133,11.0414 -4.20267,0 -7.70267,-2.9894 -7.70267,-7.2707 0,-4.7133 3.59333,-11.828 17.724,-12.3387"
       style="fill:#000000;fill-opacity:1;fill-rule:nonzero;stroke:none;stroke-width:1.33333" />
    <path
       id="path62"
       d="m 470.28665,1231.708 c 0,-13.9534 7.016,-17.5467 11.55734,-17.5467 0.76533,0 6.16666,0.079 9.156,3.1613 -3.5,0.256 -4.01067,2.828 -4.01067,3.932 0,2.24 1.532,3.948 3.932,3.948 2.224,0 3.93333,-1.4533 3.93333,-4.0253 0,-5.8173 -6.50533,-9.1613 -13.09466,-9.1613 -10.708,0 -18.58267,9.2386 -18.58267,19.8693 0,10.964 8.484,19.432 18.41067,19.432 11.47466,0 14.20933,-10.276 14.20933,-11.1347 0,-0.8493 -0.84933,-0.8493 -1.104,-0.8493 -0.772,0 -0.944,0.3387 -1.12,0.8493 -2.48,7.9734 -8.052,8.9947 -11.21867,8.9947 -4.53733,0 -12.068,-3.6773 -12.068,-17.4693"
       style="fill:#000000;fill-opacity:1;fill-rule:nonzero;stroke:none;stroke-width:1.33333" />
    <path
       id="path63"
       d="m 507.78132,1228.8026 c 0.516,-12.756 7.708,-14.896 10.61467,-14.896 8.82266,0 9.68666,11.552 9.68666,14.896 z m -0.0787,1.7907 h 23.88134 c 1.88533,0 2.14,0 2.14,-1.7907 0,-8.4906 -4.62,-16.7866 -15.328,-16.7866 -9.92667,0 -17.808,8.8226 -17.808,19.52 0,11.4746 9,19.7813 18.844,19.7813 10.43733,0 14.292,-9.5053 14.292,-11.1347 0,-0.8493 -0.672,-1.0266 -1.104,-1.0266 -0.76534,0 -0.94267,0.516 -1.12,1.1986 -2.98934,8.8227 -10.70267,8.8227 -11.552,8.8227 -4.28667,0 -7.708,-2.5733 -9.688,-5.7347 -2.55734,-4.1093 -2.55734,-9.7653 -2.55734,-12.8493"
       style="fill:#000000;fill-opacity:1;fill-rule:nonzero;stroke:none;stroke-width:1.33333" />
    <path
       id="path64"
       d="m 1124.9946,1272.88 v 3.0893 h 2.3854 c 7.6826,0 7.8706,1.0987 7.8706,4.6867 v 52.5466 c 0,3.5947 -0.188,4.688 -7.8706,4.688 h -2.3854 v 3.0934 h 36.484 c 16.7507,0 30.5214,-14.76 30.5214,-33.5054 0,-18.948 -13.4587,-34.5986 -30.5214,-34.5986 z m 23.7294,65.0106 c -4.688,0 -4.8907,-0.7026 -4.8907,-3.984 v -53.9533 c 0,-3.292 0.2027,-3.984 4.8907,-3.984 h 9.9586 c 6.1974,0 13.0667,2.1973 18.1507,9.2707 4.2973,5.88 5.1933,14.4573 5.1933,22.2386 0,11.0734 -1.9013,17.052 -5.4906,21.9427 -1.9947,2.6827 -7.672,8.4693 -17.7387,8.4693 h -10.0733"
       style="fill:#000000;fill-opacity:1;fill-rule:nonzero;stroke:none;stroke-width:1.33333" />
    <path
       id="path65"
       d="m 1235.776,1333.1093 v 8.9693 l 14.3546,-1.0946 v -3.0934 c -6.9853,0 -7.7813,-0.7026 -7.7813,-5.584 v -35.4 l -14.652,1.0987 v 3.088 c 6.98,0 7.7813,0.6933 7.7813,5.5893 v 17.7547 c 0,8.672 -4.7853,15.448 -12.0773,15.448 -8.3747,0 -8.7707,-4.692 -8.7707,-9.864 v -33.1147 l -14.6613,1.0987 v 3.088 c 7.776,0 7.776,0.3027 7.776,9.1773 v 14.964 c 0,7.7654 0,16.844 15.172,16.844 5.5827,0 9.9573,-2.792 12.8587,-8.9693"
       style="fill:#000000;fill-opacity:1;fill-rule:nonzero;stroke:none;stroke-width:1.33333" />
    <path
       id="path66"
       d="m 1286.2026,1333.4066 c 0.4067,3.984 3.0894,8.172 7.7814,8.172 2.084,0 8.172,-1.396 8.172,-9.4746 v -5.5827 h -2.4947 v 5.5827 c 0,5.7866 -2.4947,6.3853 -3.5933,6.3853 -3.276,0 -3.688,-4.484 -3.688,-4.9893 v -19.932 c 0,-4.1934 0,-8.0787 -3.588,-11.7814 -3.8907,-3.8746 -8.8654,-5.4746 -13.6614,-5.4746 -8.172,0 -15.0573,4.688 -15.0573,11.2613 0,2.9947 2.0053,4.692 4.5933,4.692 2.792,0 4.584,-1.9947 4.584,-4.5827 0,-1.2093 -0.5053,-4.5 -5.084,-4.5946 2.6974,-3.484 7.5734,-4.5774 10.776,-4.5774 4.8747,0 10.568,3.8854 10.568,12.7494 v 3.704 c -5.0946,0.296 -12.0786,0.5933 -18.3493,3.588 -7.484,3.3906 -9.9733,8.5626 -9.9733,12.9586 0,8.0774 9.676,10.568 15.948,10.568 6.588,0 11.1706,-3.98 13.0666,-8.672 z m -0.692,-16.36 v 9.9747 c 0,9.4733 -7.1826,12.864 -11.6666,12.864 -4.896,0 -8.9747,-3.484 -8.9747,-8.4693 0,-5.4894 4.188,-13.7707 20.6413,-14.3694"
       style="fill:#000000;fill-opacity:1;fill-rule:nonzero;stroke:none;stroke-width:1.33333" />
    <path
       id="path67"
       d="m 1320.8333,1271.7813 -14.3493,1.0987 v 3.0893 c 6.98,0 7.776,0.692 7.776,5.5827 v 51.8546 c 0,4.484 -1.0934,4.484 -7.776,4.484 v 3.0934 c 3.292,-0.093 8.5786,-0.3014 11.0573,-0.3014 2.4947,0 7.3853,0.208 11.0733,0.3014 v -3.0934 c -6.6826,0 -7.7813,0 -7.7813,-4.484 v -61.6253"
       style="fill:#000000;fill-opacity:1;fill-rule:nonzero;stroke:none;stroke-width:1.33333" />
    <path
       id="path68"
       d="m 1385.156,1321.64 c 2.1986,0.396 10.3853,1.996 10.3853,9.1773 0,5.084 -3.5,9.068 -11.276,9.068 -8.3747,0 -11.968,-5.6773 -13.864,-14.1667 -0.3027,-1.2813 -0.396,-1.692 -1.396,-1.692 -1.2867,0 -1.2867,0.708 -1.2867,2.4947 v 13.1613 c 0,1.692 0,2.396 1.0934,2.396 0.5053,0 0.6,-0.095 2.4946,-1.9906 0.188,-0.2027 0.188,-0.4054 1.996,-2.2907 4.3907,4.1867 8.8747,4.2813 10.9627,4.2813 11.464,0 16.0627,-6.6773 16.0627,-13.8653 0,-5.2867 -3,-8.2653 -4.192,-9.4733 -3.292,-3.1827 -7.1827,-3.9854 -11.3707,-4.7814 -5.5827,-1.0986 -12.2653,-2.3853 -12.2653,-8.172 0,-3.5 2.588,-7.5786 11.1666,-7.5786 10.964,0 11.4694,8.9746 11.672,12.0626 0.093,0.896 0.984,0.896 1.192,0.896 1.3027,0 1.3027,-0.5053 1.3027,-2.3853 v -10.084 c 0,-1.6973 0,-2.3853 -1.0987,-2.3853 -0.5,0 -0.708,0 -1.9946,1.1933 -0.2974,0.4067 -1.3027,1.3013 -1.6934,1.5987 -3.796,-2.792 -7.8906,-2.792 -9.38,-2.792 -12.172,0 -15.948,6.6826 -15.948,12.2666 0,3.4787 1.5987,6.2707 4.2814,8.468 3.1973,2.5894 5.9893,3.1987 13.156,4.5934"
       style="fill:#000000;fill-opacity:1;fill-rule:nonzero;stroke:none;stroke-width:1.33333" />
    <path
       id="path69"
       d="m 1421.7346,1303.4946 v -6.588 l -14.3653,1.0987 v 3.088 c 7.0733,0 7.776,0.6 7.776,4.9893 v 46.6627 c 0,4.4893 -1.0933,4.4893 -7.776,4.4893 v 3.088 c 3.3853,-0.093 8.5787,-0.296 11.1667,-0.296 2.6986,0 7.776,0.2027 11.2613,0.296 v -3.088 c -6.6667,0 -7.7667,0 -7.7667,-4.4893 v -17.6467 c 0.4907,1.604 4.6774,6.98 12.2667,6.98 11.8587,0 22.2293,-9.772 22.2293,-22.6306 0,-12.672 -9.6626,-22.5414 -20.8333,-22.5414 -7.776,0 -11.964,4.396 -13.9587,6.588 z m 0.296,26.1147 v -22.24 c 2.8907,-5.0827 7.7667,-7.968 12.8654,-7.968 7.276,0 13.364,8.7707 13.364,20.0467 0,12.0626 -6.9787,20.4373 -14.3694,20.4373 -3.984,0 -7.7813,-1.9947 -10.464,-6.088 -1.396,-2.084 -1.396,-2.1933 -1.396,-4.188"
       style="fill:#000000;fill-opacity:1;fill-rule:nonzero;stroke:none;stroke-width:1.33333" />
    <path
       id="path70"
       d="m 1492.9893,1333.4066 c 0.412,3.984 3.0933,8.172 7.7813,8.172 2.0894,0 8.172,-1.396 8.172,-9.4746 v -5.5827 h -2.4946 v 5.5827 c 0,5.7866 -2.4947,6.3853 -3.588,6.3853 -3.2814,0 -3.688,-4.484 -3.688,-4.9893 v -19.932 c 0,-4.1934 0,-8.0787 -3.5934,-11.7814 -3.8906,-3.8746 -8.86,-5.4746 -13.6613,-5.4746 -8.172,0 -15.0573,4.688 -15.0573,11.2613 0,2.9947 2.0093,4.692 4.5986,4.692 2.792,0 4.5774,-1.9947 4.5774,-4.5827 0,-1.2093 -0.5,-4.5 -5.0827,-4.5946 2.6973,-3.484 7.5773,-4.5774 10.776,-4.5774 4.88,0 10.5733,3.8854 10.5733,12.7494 v 3.704 c -5.1,0.296 -12.0786,0.5933 -18.3546,3.588 -7.4787,3.3906 -9.9747,8.5626 -9.9747,12.9586 0,8.0774 9.6773,10.568 15.9533,10.568 6.5894,0 11.1667,-3.98 13.0627,-8.672 z m -0.6867,-16.36 v 9.9747 c 0,9.4733 -7.1826,12.864 -11.672,12.864 -4.8906,0 -8.9693,-3.484 -8.9693,-8.4693 0,-5.4894 4.188,-13.7707 20.6413,-14.3694"
       style="fill:#000000;fill-opacity:1;fill-rule:nonzero;stroke:none;stroke-width:1.33333" />
    <path
       id="path71"
       d="m 1521.6453,1319.2453 c 0,-16.2507 8.172,-20.4387 13.4587,-20.4387 0.896,0 7.188,0.095 10.6666,3.6827 -4.0773,0.3027 -4.672,3.2973 -4.672,4.584 0,2.604 1.7867,4.5933 4.5787,4.5933 2.588,0 4.5773,-1.6933 4.5773,-4.688 0,-6.776 -7.572,-10.6666 -15.244,-10.6666 -12.4693,0 -21.6466,10.7613 -21.6466,23.136 0,12.7653 9.8866,22.6306 21.4426,22.6306 13.3654,0 16.548,-11.964 16.548,-12.9693 0,-0.9893 -0.9906,-0.9893 -1.2866,-0.9893 -0.8907,0 -1.0987,0.3906 -1.3027,0.9893 -2.8853,9.2867 -9.38,10.4787 -13.0627,10.4787 -5.2866,0 -14.0573,-4.2854 -14.0573,-20.3427"
       style="fill:#000000;fill-opacity:1;fill-rule:nonzero;stroke:none;stroke-width:1.33333" />
    <path
       id="path72"
       d="m 1566.3173,1315.8546 c 0.6,-14.8546 8.9747,-17.344 12.36,-17.344 10.276,0 11.276,13.4534 11.276,17.344 z m -0.093,2.088 h 27.8066 c 2.1987,0 2.496,0 2.496,-2.088 0,-9.8813 -5.3813,-19.5426 -17.8493,-19.5426 -11.5573,0 -20.7347,10.272 -20.7347,22.7293 0,13.36 10.4787,23.0373 21.9427,23.0373 12.156,0 16.6413,-11.0733 16.6413,-12.9693 0,-0.9893 -0.7813,-1.192 -1.2866,-1.192 -0.8907,0 -1.1,0.5933 -1.3027,1.3947 -3.4787,10.276 -12.468,10.276 -13.4587,10.276 -4.984,0 -8.968,-3 -11.276,-6.6814 -2.9786,-4.7866 -2.9786,-11.376 -2.9786,-14.964"
       style="fill:#000000;fill-opacity:1;fill-rule:nonzero;stroke:none;stroke-width:1.33333" />
  </g>
</svg>
